# Blender 3.6.2
# www.blender.org
mtllib Agaskull.mtl
o Skull
v 1.109091 -9.227591 23.427626
v 1.109091 -12.463780 23.056974
v 1.649213 -9.622366 27.406677
v 1.649213 -12.899368 27.031353
v -1.109091 -9.227591 23.427626
v -1.109091 -12.463780 23.056974
v -1.649213 -9.622366 27.406677
v -1.649213 -12.899368 27.031353
v 0.000000 -9.622366 27.406677
v 0.000000 -12.899368 27.031353
v 0.000000 -9.227591 23.427626
v 0.000000 -12.463780 23.056974
v 3.794184 -9.056016 22.461845
v 2.551578 -9.119168 22.480993
v 2.551578 -12.355359 22.110342
v 3.794184 -12.333019 22.086519
v -3.794184 -12.333019 22.086519
v -3.794184 -9.056016 22.461845
v -2.551578 -9.119168 22.480993
v -2.551578 -12.355359 22.110342
v 3.794184 -8.018922 13.406910
v 2.551578 -8.082074 13.426061
v 2.551578 -11.318265 13.055408
v 3.794184 -11.295925 13.031583
v -3.794184 -11.295925 13.031583
v -3.794184 -8.018922 13.406910
v -2.551578 -8.082074 13.426061
v -2.551578 -11.318265 13.055408
v 3.794184 -7.191672 6.184143
v 2.551578 -7.254826 6.203290
v 2.551578 -10.491016 5.832638
v 3.794184 -10.468677 5.808816
v -3.794184 -10.468677 5.808816
v -3.794184 -7.191672 6.184143
v -2.551578 -7.254826 6.203290
v -2.551578 -10.491016 5.832638
v 3.794184 -5.904816 4.878800
v 2.551578 -5.970179 4.869721
v 2.551578 -8.753144 3.176967
v 3.794184 -8.722878 3.164700
v -3.794184 -8.722878 3.164700
v -3.794184 -5.904816 4.878800
v -2.551578 -5.970179 4.869721
v -2.551578 -8.753144 3.176967
v 3.794184 -2.995929 3.417723
v 2.551578 -3.028008 3.360054
v 2.551578 -3.350556 0.118716
v 3.794184 -3.322546 0.135508
v -3.794184 -3.322546 0.135508
v -3.794184 -2.995929 3.417723
v -2.551578 -3.028008 3.360054
v -2.551578 -3.350556 0.118716
v 2.451735 7.319655 13.288832
v 2.451735 2.154328 11.170663
v 2.451735 -0.048528 28.299683
v 2.451735 -3.790699 26.759296
v -2.451735 7.319655 13.288832
v -2.451735 2.154328 11.170663
v -2.451735 -0.048528 28.299683
v -2.451735 -3.790699 26.759296
v -2.451735 -5.305913 30.086182
v -2.451735 -1.563744 31.626570
v 2.451735 -1.563744 31.626570
v 2.451735 -5.305913 30.086182
v -1.778591 -7.522093 30.989162
v -1.778591 -6.302045 34.850998
v 1.778591 -6.302045 34.850998
v 1.778591 -7.522093 30.989162
v -1.226346 -9.808233 30.909981
v -1.226346 -10.605406 33.586254
v 1.226346 -10.605406 33.586254
v 1.226346 -9.808233 30.909981
v -0.769261 -13.047276 29.521029
v -0.769261 -13.547324 31.199799
v 0.769261 -13.547324 31.199799
v 0.769261 -13.047276 29.521029
v -0.314424 -15.813775 28.150311
v -0.314424 -16.018164 28.836483
v 0.314424 -16.018164 28.836483
v 0.314424 -15.813775 28.150311
v 2.451735 6.070498 6.420149
v -2.451735 6.070498 6.420149
v 2.451735 11.235828 8.538320
v -2.451735 11.235828 8.538320
v 2.451735 8.723458 -0.153293
v -2.451735 8.723458 -0.153293
v 2.451735 17.723618 -1.412887
v -2.451735 17.723618 -1.412887
v 6.475713 7.319655 13.288832
v 6.475713 2.154328 11.170663
v -6.475713 7.319655 13.288832
v -6.475713 2.154328 11.170663
v 6.475713 11.235828 8.538320
v 6.475713 6.070498 6.420149
v -6.475713 11.235828 8.538320
v -6.475713 6.070498 6.420149
v 2.451735 8.658598 3.006811
v 2.451735 3.141583 5.388216
v -2.451735 8.658598 3.006811
v -2.451735 3.141583 5.388216
v 6.475713 8.658598 3.006811
v 6.475713 3.141583 5.388216
v -6.475713 8.658598 3.006811
v -6.475713 3.141583 5.388216
v 2.451734 0.163299 0.719108
v 2.451734 -0.456649 6.996982
v -2.451734 0.163299 0.719108
v -2.451734 -0.456649 6.996982
v 6.475713 0.163299 0.719108
v 6.475713 -0.456649 6.996982
v -6.475713 0.163299 0.719108
v -6.475713 -0.456649 6.996982
v 2.065210 -5.646482 6.318101
v 2.065210 4.157612 11.371404
v -2.065210 -5.646482 6.318101
v -2.065210 4.157612 11.371404
v 5.454794 -5.646482 6.318101
v 5.454794 4.157612 11.371404
v -5.454794 -5.646482 6.318101
v -5.454794 4.157612 11.371404
v 1.611751 -6.618826 17.028246
v 1.611751 -1.165747 22.272774
v -1.611751 -6.618826 17.028246
v -1.611751 -1.165747 22.272774
v 4.257082 -6.618826 17.028246
v 4.257082 -1.165747 22.272774
v -4.257082 -6.618826 17.028246
v -4.257082 -1.165747 22.272774
v 0.463183 -9.757625 31.553175
v 1.611751 -5.632761 22.825455
v -0.463183 -9.757625 31.553175
v -1.611751 -5.632761 22.825455
v 1.223395 -9.757625 31.553175
v 4.257082 -5.632761 22.825455
v -1.223395 -9.757625 31.553175
v -4.257082 -5.632761 22.825455
v 0.587578 -4.529684 33.210205
v 0.587578 -6.288217 27.782015
v -0.587578 -4.529684 33.210205
v -0.587578 -6.288217 27.782015
v 1.551958 -4.529684 33.210205
v 1.551958 -6.288217 27.782015
v -1.551958 -4.529684 33.210205
v -1.551958 -6.288217 27.782015
v 2.451735 8.658598 0.941608
v 6.475713 8.658598 0.941608
v -6.475713 8.658598 0.941608
v -2.451735 8.658598 0.941608
v 2.451734 3.765845 -1.346094
v 6.475713 3.765845 -1.346094
v -6.475713 3.765845 -1.346094
v -2.451734 3.765845 -1.346094
v 3.190829 0.032161 -0.139455
v 8.427867 0.032161 -0.139455
v -8.427867 0.032161 -0.139455
v -3.190829 0.032161 -0.139455
v 3.190829 0.032161 -2.204657
v 8.427867 0.032161 -2.204657
v -8.427867 0.032161 -2.204657
v -3.190829 0.032161 -2.204657
v 5.935251 21.303265 -11.051629
v -5.935251 21.303265 -11.051629
v 5.895386 29.335894 -10.514810
v -5.895386 29.335894 -10.514810
v 6.279470 13.714050 -1.103297
v 6.279470 10.199119 -1.598798
v -6.279470 13.714050 -1.103297
v -6.279470 10.199119 -1.598798
v 14.910247 20.834099 -7.850533
v 11.261765 15.464590 -8.450861
v -14.910247 20.834099 -7.850533
v -11.261765 15.464590 -8.450861
v 6.119092 7.438185 5.147141
v 6.119092 5.210076 4.023075
v -6.119092 7.438185 5.147141
v -6.119092 5.210076 4.023075
v 14.304542 12.161273 -4.290352
v 10.804275 7.581837 -3.780557
v -14.304542 12.161273 -4.290352
v -10.804275 7.581837 -3.780557
v 4.463724 19.572372 17.313423
v -4.463724 19.572372 17.313423
v 0.000000 19.324816 39.548927
v 17.241680 7.473348 -0.331480
v -20.987968 16.116421 -6.370608
v 18.341444 30.100830 -10.155502
v 20.987968 16.116421 -6.370607
v -17.241680 7.473348 -0.331480
v -18.341444 30.100830 -10.155502
v 0.000000 37.018047 -11.734494
vn 0.0289 0.9949 0.0963
vn -0.0000 -0.1138 0.9935
vn 0.5512 0.0949 -0.8290
vn -0.0000 0.1138 -0.9935
vn -0.0000 0.9951 0.0987
vn -0.0000 -0.9940 -0.1089
vn -0.0487 0.9923 0.1137
vn 0.0157 -0.9934 -0.1138
vn 0.9183 -0.0450 0.3932
vn -0.5512 0.0949 -0.8290
vn -0.0093 -0.9941 -0.1082
vn -0.9183 -0.0450 0.3932
vn 0.0093 -0.9941 -0.1082
vn -0.0289 0.9949 0.0963
vn -1.0000 -0.0000 -0.0000
vn -0.0157 -0.9934 -0.1138
vn 1.0000 -0.0000 -0.0000
vn 0.0487 0.9923 0.1137
vn -0.0131 -0.4909 -0.8711
vn -0.0097 -0.8356 -0.5493
vn 0.0097 -0.8356 -0.5493
vn -0.0342 0.7158 0.6975
vn 0.0342 0.7158 0.6975
vn -0.0211 0.9949 -0.0990
vn 0.0211 0.9949 -0.0990
vn 0.0131 -0.4909 -0.8711
vn -0.0417 0.4523 0.8909
vn 0.0417 0.4523 0.8909
vn -0.0000 0.8977 0.4406
vn -0.0000 -0.9344 -0.3563
vn -0.0000 -0.7716 -0.6361
vn -0.0000 0.5626 0.8267
vn -0.0000 -0.9101 -0.4145
vn -0.0000 -0.3546 0.9350
vn -0.0000 0.0346 -0.9994
vn -0.9858 -0.1235 0.1135
vn -0.0000 -0.3773 -0.9261
vn 0.9858 -0.1235 0.1135
vn -0.0000 -0.6300 0.7766
vn 0.9858 -0.1674 0.0108
vn -0.0000 -0.2820 0.9594
vn -0.9858 -0.1674 0.0108
vn -0.0000 -0.6912 0.7227
vn -0.9916 -0.1241 -0.0370
vn -0.0000 0.3941 -0.9191
vn 0.9916 -0.1241 -0.0370
vn -0.0000 -0.9584 -0.2855
vn -0.9890 -0.1417 -0.0422
vn -0.0000 0.4440 -0.8960
vn 0.9890 -0.1417 -0.0422
vn -0.0000 0.8377 0.5461
vn -0.0000 0.7716 0.6361
vn -0.0000 -0.3794 0.9252
vn -0.2966 0.4982 0.8148
vn -0.1997 -0.8291 -0.5222
vn -0.1659 -0.0601 -0.9843
vn -0.0000 -0.9273 -0.3743
vn -0.9863 0.1274 0.1051
vn -0.0000 -0.3323 0.9432
vn 0.9863 0.1274 0.1051
vn -0.0000 0.9064 -0.4223
vn -0.0000 -0.6939 -0.7200
vn -0.0000 0.6880 -0.7257
vn -0.0000 1.0000 -0.0000
vn -0.0000 0.4082 0.9129
vn -0.9938 -0.0621 0.0921
vn -0.0000 0.8986 0.4388
vn 0.9621 -0.2117 0.1716
vn -0.9943 0.0828 -0.0671
vn -0.9621 -0.2117 0.1716
vn 0.9943 0.0828 -0.0671
vn -0.0000 -0.9774 -0.2112
vn -0.9935 0.1122 -0.0191
vn 0.9991 0.0236 -0.0350
vn -0.0000 -0.9959 -0.0904
vn 0.9938 -0.0621 0.0921
vn -0.9991 0.0236 -0.0350
vn -0.0000 -0.3021 0.9533
vn -0.0000 0.9914 0.1311
vn -0.0000 0.1228 0.9924
vn -0.9571 -0.2855 0.0486
vn 0.9935 0.1122 -0.0191
vn 0.9571 -0.2855 0.0486
vn -0.0000 0.9513 -0.3082
vn 0.9590 0.1620 0.2326
vn -0.9938 -0.0636 -0.0913
vn -0.9590 0.1620 0.2326
vn 0.9938 -0.0636 -0.0913
vn -0.0000 0.4236 -0.9059
vn -0.0000 -0.9885 0.1510
vn -0.0000 0.2241 -0.9746
vn -0.0000 -1.0000 -0.0000
vn 0.7192 0.5236 0.4567
vn 0.9391 -0.2589 -0.2258
vn -0.7192 0.5236 0.4567
vn -0.9391 -0.2589 -0.2258
vn 0.0262 -0.5720 0.8198
vn -0.0262 -0.5720 0.8198
vn -0.0000 -0.5725 0.8199
vn -0.0000 -0.6548 -0.7558
vn -0.0000 0.6169 0.7870
vn -0.2103 -0.6375 -0.7412
vn -0.4021 0.4879 0.7748
vn -0.5914 -0.4861 -0.6434
vn 0.4236 -0.3638 0.8296
vn 0.0852 0.0394 -0.9956
vn 0.0879 0.0557 -0.9946
vn 0.0769 0.0169 -0.9969
vn 0.2966 0.4982 0.8148
vn 0.2103 -0.6375 -0.7412
vn 0.7306 0.5328 0.4270
vn 0.4119 -0.0717 0.9084
vn 0.3082 -0.1629 0.9373
vn 0.3733 -0.1122 0.9209
vn 0.8043 0.3459 -0.4831
vn 0.7925 0.3666 -0.4875
vn 0.9147 0.0681 -0.3984
vn 0.1849 0.9255 0.3305
vn 0.2409 0.8791 0.4112
vn 0.2630 0.8513 0.4540
vn -0.1078 -0.5167 -0.8494
vn -0.1078 -0.5141 -0.8509
vn -0.1084 -0.5262 -0.8434
vn 0.4021 0.4879 0.7748
vn 0.5914 -0.4861 -0.6434
vn 0.2646 0.9604 -0.0876
vn -0.1333 -0.9891 -0.0633
vn 0.7105 -0.6920 -0.1278
vn 0.1659 -0.0601 -0.9843
vn 0.1997 -0.8291 -0.5222
vn -0.7306 0.5328 0.4270
vn -0.4236 -0.3638 0.8296
vn -0.0000 0.5021 -0.8648
vn 0.9940 0.0995 0.0453
vn -0.0000 0.7250 -0.6888
vn -0.0000 -0.3121 0.9501
vn -0.9940 0.0995 0.0453
vn 0.8612 -0.2220 -0.4572
vn 0.8545 -0.2579 -0.4509
vn 0.5151 -0.5584 -0.6503
vn 0.0796 0.3742 0.9239
vn 0.0796 0.3760 0.9232
vn 0.0781 0.3551 0.9316
vn -0.2409 0.8791 0.4112
vn -0.1849 0.9255 0.3305
vn -0.2630 0.8513 0.4540
vn -0.6862 -0.3412 -0.6425
vn -0.8227 -0.4171 -0.3864
vn -0.8567 -0.4548 -0.2433
vn 0.1423 -0.4453 0.8840
vn 0.1394 -0.4972 0.8564
vn 0.1423 -0.4481 0.8826
vn -0.1394 -0.4972 0.8564
vn -0.1423 -0.4453 0.8840
vn -0.1423 -0.4467 0.8833
vn -0.7925 0.3666 -0.4875
vn -0.8043 0.3459 -0.4831
vn -0.9147 0.0681 -0.3984
vn 0.8227 -0.4170 -0.3864
vn 0.6862 -0.3411 -0.6425
vn 0.8567 -0.4548 -0.2433
vn 0.0952 -0.3333 -0.9380
vn 0.1105 -0.3476 -0.9311
vn 0.1179 -0.3533 -0.9281
vn -0.0302 0.0737 -0.9968
vn -0.0293 0.0721 -0.9970
vn -0.0156 0.0435 -0.9989
vn 0.0293 0.0721 -0.9970
vn 0.0302 0.0737 -0.9968
vn 0.0156 0.0435 -0.9989
vn 0.1078 -0.5141 -0.8509
vn 0.1078 -0.5167 -0.8494
vn 0.1084 -0.5262 -0.8434
vn 0.1333 -0.9891 -0.0633
vn -0.2646 0.9604 -0.0876
vn -0.8996 -0.4158 -0.1338
vn -0.0796 0.3760 0.9232
vn -0.0796 0.3742 0.9239
vn -0.0781 0.3551 0.9316
vn -0.8545 -0.2579 -0.4509
vn -0.8612 -0.2220 -0.4572
vn -0.5230 -0.5522 -0.6492
vn 0.0363 -0.2739 0.9611
vn 0.0229 0.0448 0.9987
vn -0.0605 -0.2950 0.9536
vn -0.0229 0.0448 0.9987
vn -0.0363 -0.2739 0.9611
vn 0.0347 -0.3300 0.9433
vn -0.3082 -0.1629 0.9373
vn -0.4119 -0.0717 0.9084
vn -0.3733 -0.1122 0.9209
vn -0.0879 0.0557 -0.9946
vn -0.0852 0.0394 -0.9956
vn -0.0769 0.0169 -0.9969
vn -0.1105 -0.3476 -0.9311
vn -0.0952 -0.3333 -0.9380
vn -0.1179 -0.3533 -0.9281
vn -0.0532 -0.7225 -0.6893
vn 0.0532 -0.7225 -0.6893
vn -0.0000 -0.7246 -0.6892
vt 0.375000 0.750000
vt 0.375000 0.500000
vt 0.375000 0.375000
vt 0.625000 0.500000
vt 0.625000 0.375000
vt 0.625000 0.750000
vt 0.375000 0.875000
vt 0.375000 1.000000
vt 0.625000 1.000000
vt 0.625000 0.875000
vt 0.250000 0.500000
vt 0.250000 0.750000
vt 0.750000 0.500000
vt 0.750000 0.750000
vt 0.875000 0.750000
vt 0.875000 0.500000
vt 0.125000 0.500000
vt 0.125000 0.750000
vt 0.375000 0.250000
vt 0.625000 0.250000
vt 0.375000 0.000000
vt 0.625000 0.000000
vt 0.000000 0.000000
s 0
usemtl Material.001
f 5/1/1 19/1/1 18/2/1 7/2/1
f 9/3/2 7/2/2 8/4/2 10/5/2
f 6/6/3 20/6/3 19/1/3 5/1/3
f 11/7/4 1/8/4 2/9/4 12/10/4
f 9/11/5 11/12/5 5/1/5 7/2/5
f 10/13/6 12/14/6 2/15/6 4/16/6
f 8/4/6 6/6/6 12/14/6 10/13/6
f 3/17/5 1/18/5 11/12/5 9/11/5
f 5/1/4 11/7/4 12/10/4 6/6/4
f 3/19/2 9/3/2 10/5/2 4/20/2
f 13/17/7 21/17/7 22/18/7 14/18/7
f 15/15/8 23/15/8 24/16/8 16/16/8
f 4/20/9 16/20/9 13/19/9 3/19/9
f 1/8/10 14/8/10 15/9/10 2/9/10
f 8/4/11 17/4/11 20/6/11 6/6/11
f 7/2/12 18/2/12 17/4/12 8/4/12
f 2/15/13 15/15/13 16/16/13 4/16/13
f 3/17/14 13/17/14 14/18/14 1/18/14
f 26/2/15 34/2/15 33/4/15 25/4/15
f 25/4/16 33/4/16 36/6/16 28/6/16
f 20/6/17 28/6/17 27/1/17 19/1/17
f 19/1/18 27/1/18 26/2/18 18/2/18
f 16/20/17 24/20/17 21/19/17 13/19/17
f 14/8/15 22/8/15 23/9/15 15/9/15
f 17/4/16 25/4/16 28/6/16 20/6/16
f 18/2/15 26/2/15 25/4/15 17/4/15
f 30/8/15 38/8/15 39/9/15 31/9/15
f 32/20/17 40/20/17 37/19/17 29/19/17
f 23/15/8 31/15/8 32/16/8 24/16/8
f 21/17/7 29/17/7 30/18/7 22/18/7
f 28/6/17 36/6/17 35/1/17 27/1/17
f 27/1/18 35/1/18 34/2/18 26/2/18
f 24/20/17 32/20/17 29/19/17 21/19/17
f 22/8/15 30/8/15 31/9/15 23/9/15
f 42/2/15 50/2/15 49/4/15 41/4/15
f 41/4/19 49/4/19 52/6/19 44/6/19
f 33/4/20 41/4/20 44/6/20 36/6/20
f 34/2/15 42/2/15 41/4/15 33/4/15
f 31/15/21 39/15/21 40/16/21 32/16/21
f 29/17/22 37/17/22 38/18/22 30/18/22
f 36/6/17 44/6/17 43/1/17 35/1/17
f 35/1/23 43/1/23 42/2/23 34/2/23
f 46/21/24 45/19/24 48/20/24 47/22/24
f 50/2/25 51/1/25 52/6/25 49/4/25
f 39/15/26 47/15/26 48/16/26 40/16/26
f 37/17/27 45/17/27 46/18/27 38/18/27
f 44/6/17 52/6/17 51/1/17 43/1/17
f 43/1/28 51/1/28 50/2/28 42/2/28
f 40/20/17 48/20/17 45/19/17 37/19/17
f 38/8/15 46/8/15 47/9/15 39/9/15
f 53/4/29 57/16/29 59/15/29 55/6/29
f 59/22/15 60/21/15 61/21/15 62/22/15
f 60/21/15 59/22/15 57/20/15 58/19/15
f 58/17/30 54/2/30 56/1/30 60/18/30
f 54/2/17 53/4/17 55/6/17 56/1/17
f 54/2/31 58/17/31 82/17/31 81/2/31
f 63/6/32 62/15/32 66/15/32 67/6/32
f 60/18/33 56/1/33 64/1/33 61/18/33
f 62/15/34 63/6/34 183/15/34
f 56/1/17 55/6/17 63/6/17 64/1/17
f 65/18/35 68/1/35 72/1/35 69/18/35
f 62/22/36 61/21/36 65/21/36 66/22/36
f 61/18/37 64/1/37 68/1/37 65/18/37
f 64/1/38 63/6/38 67/6/38 68/1/38
f 71/6/39 70/15/39 74/15/39 75/6/39
f 68/1/40 67/6/40 71/6/40 72/1/40
f 67/6/41 66/15/41 70/15/41 71/6/41
f 66/22/42 65/21/42 69/21/42 70/22/42
f 75/6/43 74/15/43 78/15/43 79/6/43
f 70/22/44 69/21/44 73/21/44 74/22/44
f 69/18/45 72/1/45 76/1/45 73/18/45
f 72/1/46 71/6/46 75/6/46 76/1/46
f 80/1/47 79/6/47 78/9/47 77/8/47
f 74/22/48 73/21/48 77/21/48 78/22/48
f 73/18/49 76/1/49 80/1/49 77/18/49
f 76/1/50 75/6/50 79/6/50 80/1/50
f 84/16/51 83/4/51 87/4/51 88/16/51
f 57/16/52 53/4/52 83/4/52 84/16/52
f 58/19/53 57/20/53 91/20/53 92/19/53
f 81/2/15 83/4/15 97/4/15 98/2/15
f 88/16/54 164/16/54 171/16/54 167/16/54
f 81/2/55 85/2/55 166/2/55 174/2/55
f 85/23/56 87/23/56 165/23/56 166/23/56
f 81/2/57 82/17/57 86/17/57 85/2/57
f 89/4/17 90/2/17 94/2/17 93/4/17
f 92/19/15 91/20/15 95/20/15 96/19/15
f 95/20/58 91/20/58 182/20/58
f 82/17/31 58/17/31 92/17/31 96/17/31
f 94/2/59 81/2/59 98/2/59 102/2/59
f 57/16/60 84/16/60 182/16/60
f 54/2/31 81/2/31 94/2/31 90/2/31
f 53/4/53 54/2/53 90/2/53 89/4/53
f 101/4/17 102/2/17 110/2/17 109/4/17
f 101/4/17 109/4/17 150/4/17 146/4/17
f 95/16/61 84/16/61 99/16/61 103/16/61
f 96/19/15 95/20/15 103/20/15 104/19/15
f 83/4/61 93/4/61 101/4/61 97/4/61
f 84/20/17 82/19/17 100/19/17 99/20/17
f 82/17/59 96/17/59 104/17/59 100/17/59
f 93/4/17 94/2/17 102/2/17 101/4/17
f 105/4/62 109/4/62 117/4/62 113/4/62
f 108/17/63 112/17/63 120/17/63 116/17/63
f 98/2/15 97/4/15 105/4/15 106/2/15
f 97/4/64 101/4/64 146/4/64 145/4/64
f 102/2/65 98/2/65 106/2/65 110/2/65
f 104/19/15 103/20/15 111/20/15 112/19/15
f 99/20/17 100/19/17 108/19/17 107/20/17
f 100/17/65 104/17/65 112/17/65 108/17/65
f 120/19/66 119/20/66 127/20/66 128/19/66
f 118/2/67 114/2/67 122/2/67 126/2/67
f 109/4/68 110/2/68 118/2/68 117/4/68
f 106/2/69 105/4/69 113/4/69 114/2/69
f 111/16/62 107/16/62 115/16/62 119/16/62
f 110/2/63 106/2/63 114/2/63 118/2/63
f 112/19/70 111/20/70 119/20/70 120/19/70
f 107/20/71 108/19/71 116/19/71 115/20/71
f 127/16/72 123/16/72 131/16/72 135/16/72
f 122/2/73 121/4/73 129/4/73 130/2/73
f 115/20/74 116/19/74 124/19/74 123/20/74
f 116/17/67 120/17/67 128/17/67 124/17/67
f 113/4/75 117/4/75 125/4/75 121/4/75
f 117/4/76 118/2/76 126/2/76 125/4/76
f 114/2/77 113/4/77 121/4/77 122/2/77
f 119/16/75 115/16/75 123/16/75 127/16/75
f 129/4/78 133/4/78 141/4/78 137/4/78
f 132/17/79 136/17/79 144/17/79 140/17/79
f 126/2/80 122/2/80 130/2/80 134/2/80
f 128/19/81 127/20/81 135/20/81 136/19/81
f 123/20/82 124/19/82 132/19/82 131/20/82
f 124/17/80 128/17/80 136/17/80 132/17/80
f 121/4/72 125/4/72 133/4/72 129/4/72
f 125/4/83 126/2/83 134/2/83 133/4/83
f 138/2/84 137/4/84 141/4/84 142/2/84
f 139/20/84 140/19/84 144/19/84 143/20/84
f 133/4/85 134/2/85 142/2/85 141/4/85
f 130/2/86 129/4/86 137/4/86 138/2/86
f 135/16/78 131/16/78 139/16/78 143/16/78
f 134/2/79 130/2/79 138/2/79 142/2/79
f 136/19/87 135/20/87 143/20/87 144/19/87
f 131/20/88 132/19/88 140/19/88 139/20/88
f 145/4/89 146/4/89 150/4/89 149/4/89
f 147/16/89 148/16/89 152/16/89 151/16/89
f 109/4/90 105/4/90 153/4/90 154/4/90
f 111/20/15 103/20/15 147/20/15 151/20/15
f 103/16/64 99/16/64 148/16/64 147/16/64
f 105/4/15 97/4/15 145/4/15 149/4/15
f 151/16/91 152/16/91 160/16/91 159/16/91
f 99/20/17 107/20/17 152/20/17 148/20/17
f 154/4/92 153/4/92 157/4/92 158/4/92
f 156/16/92 155/16/92 159/16/92 160/16/92
f 150/4/93 109/4/93 154/4/93 158/4/93
f 152/20/94 107/20/94 156/20/94 160/20/94
f 107/16/90 111/16/90 155/16/90 156/16/90
f 111/20/95 151/20/95 159/20/95 155/20/95
f 149/4/91 150/4/91 158/4/91 157/4/91
f 105/4/96 149/4/96 157/4/96 153/4/96
f 164/16/97 163/4/98 190/16/99
f 85/2/100 86/17/100 162/17/100 161/2/100
f 88/16/101 87/4/101 163/4/101 164/16/101
f 85/2/102 161/2/102 170/2/102 166/2/102
f 167/16/103 171/16/103 179/16/103 175/16/103
f 166/2/104 170/2/104 178/2/104 174/2/104
f 83/4/105 81/2/105 174/2/105 173/4/105
f 164/20/106 162/19/107 189/20/108
f 163/4/109 87/4/109 165/4/109 169/4/109
f 162/17/110 86/17/110 168/17/110 172/17/110
f 87/4/111 83/4/111 173/4/111 165/4/111
f 171/16/112 164/16/113 189/16/114
f 179/20/115 180/19/116 188/20/117
f 175/16/118 179/16/119 188/16/120
f 172/17/121 180/17/122 185/17/123
f 169/4/124 165/4/124 173/4/124 177/4/124
f 172/17/125 168/17/125 176/17/125 180/17/125
f 177/4/126 178/2/127 187/4/128
f 88/23/129 86/23/129 168/23/129 167/23/129
f 86/17/130 82/17/130 176/17/130 168/17/130
f 84/16/131 88/16/131 167/16/131 175/16/131
f 82/19/132 84/20/132 175/20/132 176/19/132
f 55/6/133 59/15/133 183/6/133
f 63/6/134 55/6/134 183/6/134
f 84/16/135 95/16/135 182/16/135
f 53/4/136 89/4/136 181/4/136
f 83/4/58 53/4/58 181/4/58
f 91/20/136 57/20/136 182/20/136
f 93/4/135 83/4/135 181/4/135
f 89/4/60 93/4/60 181/4/60
f 59/22/137 62/22/137 183/22/137
f 163/4/138 161/2/139 190/4/140
f 179/16/141 171/16/142 185/16/143
f 177/4/144 173/4/145 184/4/146
f 174/2/147 178/2/148 184/2/149
f 176/19/150 175/20/151 188/19/152
f 173/4/153 174/2/154 184/4/155
f 178/2/156 177/4/157 184/2/158
f 180/17/159 176/17/160 188/17/161
f 170/2/162 161/2/163 186/2/164
f 171/20/165 172/19/166 185/20/167
f 170/2/168 169/4/169 187/2/170
f 178/2/171 170/2/172 187/2/173
f 180/19/174 179/20/175 185/19/176
f 169/4/177 177/4/178 187/4/179
f 162/19/180 164/20/181 190/19/182
f 172/19/183 171/20/184 189/19/185
f 169/4/186 170/2/187 186/4/188
f 163/4/189 169/4/190 186/4/191
f 161/2/192 163/4/193 186/2/194
f 162/17/195 172/17/196 189/17/197
f 161/2/198 162/17/199 190/2/200
