# Blender 3.6.2
# www.blender.org
mtllib StegoBack.mtl
o Spine
v -5.023526 11.998121 -78.100342
v -5.023526 1.951069 -78.100342
v -5.023526 11.998121 53.493820
v -5.023526 1.951069 53.493820
v -5.023526 16.233917 0.000000
v -5.023526 26.280970 0.000000
v -5.023526 10.527077 33.263603
v -5.023526 20.574127 33.263603
v -5.023526 17.716362 -39.050171
v -5.023526 7.669309 -39.050171
v -5.023526 25.368723 19.525085
v -5.023526 15.321672 19.525085
v -17.722116 13.851931 -26.828499
v -5.023526 12.986784 -19.525085
v -16.377172 11.386778 -11.833389
v -5.023526 23.033836 -19.525085
v -17.992876 15.042055 -21.984215
v -5.023526 5.209019 44.708794
v -16.886917 10.180812 -21.984215
v -5.023526 15.256071 44.708794
v -16.616158 8.990687 -26.828499
v -5.023526 13.673075 -56.585098
v -21.686768 -7.323536 -34.168896
v -5.023526 3.626022 -56.585098
v -15.841123 10.153948 -17.454241
v -5.023526 20.574127 -29.287626
v -18.147747 15.458828 -17.454241
v -5.023526 10.527077 -29.287626
v -18.683798 16.691658 -11.833389
v -5.023526 15.321672 -9.762543
v -16.001177 7.200369 -31.070406
v -5.023526 25.368723 -9.762543
v -19.936481 -7.172047 -43.931438
v -5.023526 26.280970 9.762543
v -15.378330 5.496619 -37.267391
v -5.023526 16.233917 9.762543
v -17.568071 11.486492 -37.267391
v -5.023526 12.986784 26.826761
v -18.190918 13.190243 -31.070406
v -5.023526 23.033836 26.826761
v -15.753900 7.269306 -47.118919
v -5.023526 17.716362 39.115776
v -13.110105 -6.911079 -52.513252
v -5.023526 7.669309 39.115776
v -16.344688 8.559478 -40.743969
v -5.023526 3.249726 48.762768
v -13.932092 3.290817 -40.743969
v -5.023526 13.296779 48.762768
v -13.341303 2.000644 -47.118919
v -5.023526 5.209019 -48.812714
v -9.104483 -0.266901 -50.535774
v -5.023526 15.256071 -48.812714
v -8.839494 -0.910440 -54.827858
v -5.023526 12.510399 -63.371441
v -10.521347 3.174011 -54.827858
v -5.023526 2.463346 -64.524635
v -10.786338 3.817550 -50.535774
v 0.000000 1.951069 -78.100342
v 0.000000 11.998121 53.493820
v 0.000000 1.951069 53.493820
v 0.000000 11.998121 -78.100342
v 0.000000 16.233917 0.000000
v 0.000000 26.280970 0.000000
v 0.000000 10.527077 33.263603
v 0.000000 20.574127 33.263603
v 0.000000 17.716362 -39.050171
v 0.000000 7.669309 -39.050171
v 0.000000 25.368723 19.525085
v 0.000000 15.321672 19.525085
v 0.000000 23.033836 -19.525085
v 0.000000 12.986784 -19.525085
v 0.000000 5.209019 44.708794
v 0.000000 15.256071 44.708794
v 0.000000 3.626022 -56.585098
v 0.000000 13.673075 -56.585098
v 0.000000 10.527077 -29.287626
v 0.000000 20.574127 -29.287626
v 0.000000 25.368723 -9.762543
v 0.000000 15.321672 -9.762543
v 0.000000 16.233917 9.762543
v 0.000000 26.280970 9.762543
v 0.000000 23.033836 26.826761
v 0.000000 12.986784 26.826761
v 0.000000 17.716362 39.115776
v 0.000000 7.669309 39.115776
v 0.000000 3.249726 48.762768
v 0.000000 13.296779 48.762768
v 0.000000 5.209019 -48.812714
v 0.000000 15.256071 -48.812714
v 0.000000 12.510399 -64.524635
v 0.000000 2.463346 -64.524635
v -22.515053 -4.433951 -24.406357
v -21.845194 -2.275139 -14.643815
v -17.546942 20.490410 -2.034831
v -15.546676 14.983660 -2.034831
v -15.365056 14.483662 -7.727711
v -17.365324 19.990414 -7.727711
v -18.909332 7.054766 -4.881271
v -11.691870 15.563436 2.464278
v -13.945729 19.998455 2.464278
v -13.945729 19.998455 7.298265
v -11.691870 15.563436 7.298265
v -15.771051 12.458624 4.881271
v 5.023526 11.998121 -78.100342
v 5.023526 1.951069 -78.100342
v 5.023526 11.998121 53.493820
v 5.023526 1.951069 53.493820
v 5.023526 16.233917 0.000000
v 5.023526 26.280970 0.000000
v 5.023526 10.527077 33.263603
v 5.023526 20.574127 33.263603
v 5.023526 17.716362 -39.050171
v 5.023526 7.669309 -39.050171
v 5.023526 25.368723 19.525085
v 5.023526 15.321672 19.525085
v 17.722116 13.851931 -26.828499
v 5.023526 12.986784 -19.525085
v 16.377172 11.386778 -11.833389
v 5.023526 23.033836 -19.525085
v 17.992876 15.042055 -21.984215
v 5.023526 5.209019 44.708794
v 16.886917 10.180812 -21.984215
v 5.023526 15.256071 44.708794
v 16.616158 8.990687 -26.828499
v 5.023526 13.673075 -56.585098
v 21.686768 -7.323536 -34.168896
v 5.023526 3.626022 -56.585098
v 15.841123 10.153948 -17.454241
v 5.023526 20.574127 -29.287626
v 18.147747 15.458828 -17.454241
v 5.023526 10.527077 -29.287626
v 18.683798 16.691658 -11.833389
v 5.023526 15.321672 -9.762543
v 16.001177 7.200369 -31.070406
v 5.023526 25.368723 -9.762543
v 19.936481 -7.172047 -43.931438
v 5.023526 26.280970 9.762543
v 15.378330 5.496619 -37.267391
v 5.023526 16.233917 9.762543
v 17.568071 11.486492 -37.267391
v 5.023526 12.986784 26.826761
v 18.190918 13.190243 -31.070406
v 5.023526 23.033836 26.826761
v 15.753900 7.269306 -47.118919
v 5.023526 17.716362 39.115776
v 13.110105 -6.911079 -52.513252
v 5.023526 7.669309 39.115776
v 16.344688 8.559478 -40.743969
v 5.023526 3.249726 48.762768
v 13.932092 3.290817 -40.743969
v 5.023526 13.296779 48.762768
v 13.341303 2.000644 -47.118919
v 5.023526 5.209019 -48.812714
v 9.104483 -0.266901 -50.535774
v 5.023526 15.256071 -48.812714
v 8.839494 -0.910440 -54.827858
v 5.023526 12.510399 -63.371441
v 10.521347 3.174011 -54.827858
v 5.023526 2.463346 -64.524635
v 10.786338 3.817550 -50.535774
v 22.515053 -4.433951 -24.406357
v 21.845194 -2.275139 -14.643815
v 17.546942 20.490410 -2.034831
v 15.546676 14.983660 -2.034831
v 15.365056 14.483662 -7.727711
v 17.365324 19.990414 -7.727711
v 18.909332 7.054766 -4.881271
v 11.691870 15.563436 2.464278
v 13.945729 19.998455 2.464278
v 13.945729 19.998455 7.298265
v 11.691870 15.563436 7.298265
v 15.771051 12.458624 4.881271
v -2.213177 23.468273 -19.515293
v -2.213177 21.008566 -29.277832
v -2.213177 25.803160 19.534874
v -2.213177 26.715406 9.772333
v -2.213177 15.690509 44.718578
v -2.213177 18.150799 39.125565
v -2.213177 14.107513 -57.412270
v -2.213177 12.944837 -63.209961
v 0.000000 25.803160 19.534874
v 0.000000 23.468273 -19.515293
v 0.000000 15.690509 44.718578
v 0.000000 14.107513 -57.412270
v 0.000000 21.008566 -29.277832
v 0.000000 26.715406 9.772333
v 0.000000 18.150799 39.125565
v 0.000000 12.944837 -63.209961
v 0.000000 15.690509 -48.802917
v 0.000000 18.150799 -39.040375
v 0.000000 23.468273 26.836552
v 0.000000 21.008566 33.273388
v 0.000000 25.803160 -9.752750
v 0.000000 26.715406 0.009791
v 1.780815 26.715406 0.009791
v 1.780815 25.803160 -9.752750
v 1.780815 21.008566 33.273388
v 1.780815 23.468273 26.836552
v 1.780815 18.150799 -39.040375
v 1.780815 15.690509 -48.802917
v -14.752548 48.875023 -11.165439
v -9.193556 29.579590 -33.311474
v -14.752548 51.209911 27.884726
v -9.193556 35.286430 5.738691
v -14.752548 41.097260 53.068432
v -9.193556 26.721825 35.091915
v -14.195134 25.614624 -56.391602
v -8.866631 17.137012 -66.822838
v 15.848318 52.122158 8.359645
v 8.753964 34.374187 -13.786393
v 15.848318 46.415318 41.623245
v 8.753964 32.039299 22.802906
v 15.848318 43.557549 -30.690523
v 8.753964 24.261532 -52.836555
v -12.645041 49.309460 -11.155646
v -7.957495 30.014029 -33.301678
v -12.645041 51.644348 27.894512
v -7.957495 35.720871 5.748478
v -12.645041 41.531700 53.078213
v -7.957495 27.156260 35.101700
v -13.202456 25.819254 -56.386990
v -8.284421 17.341640 -66.818214
v 14.574658 52.556595 8.369434
v 8.006959 34.808624 -13.776601
v 14.574658 46.849754 41.633026
v 8.006959 32.473736 22.812695
v 14.574658 43.991989 -30.680727
v 8.006959 24.695972 -52.826756
vn -0.0000 0.9643 0.2647
vn -0.0000 -0.0000 1.0000
vn -1.0000 -0.0000 -0.0000
vn -0.2832 -0.0441 0.9580
vn -0.0000 0.9957 -0.0930
vn -0.0000 0.9341 0.3570
vn -0.0000 0.9697 -0.2444
vn -0.1379 -0.0188 0.9903
vn -0.1602 -0.0241 -0.9868
vn 0.0835 -0.3679 -0.9261
vn -0.0000 0.0225 -0.9997
vn -0.8587 0.4881 -0.1561
vn -0.8850 0.4541 -0.1032
vn -0.0000 0.9597 -0.2809
vn -0.1937 -0.0144 -0.9810
vn 0.0992 -0.9908 0.0917
vn -0.0000 0.9726 -0.2326
vn 0.1766 -0.9541 0.2417
vn -0.4851 0.8462 -0.2204
vn -0.0000 1.0000 -0.0000
vn -0.0000 0.9525 0.3046
vn -0.1884 -0.0140 0.9820
vn -0.5070 0.8356 -0.2115
vn -0.0000 0.8986 0.4388
vn -0.9743 0.1821 -0.1328
vn -0.1521 -0.0229 0.9881
vn -0.9647 0.2380 -0.1124
vn 0.8976 -0.3937 0.1985
vn -0.0000 0.9004 0.4351
vn -0.1606 -0.0253 -0.9867
vn -0.2699 -0.0987 -0.9578
vn -0.9708 0.1880 -0.1493
vn -0.0000 0.9799 -0.1996
vn -0.0042 0.9993 -0.0362
vn 0.2844 -0.9317 0.2260
vn -0.1466 -0.0200 -0.9890
vn -0.0000 -0.9993 0.0377
vn 0.2400 -0.9309 0.2754
vn -0.4517 0.8530 -0.2614
vn -0.0000 -0.9799 0.1996
vn -0.2808 -0.1286 -0.9511
vn -0.0000 -0.9004 -0.4351
vn -0.0000 -0.8986 -0.4388
vn -0.9590 0.2471 -0.1389
vn -0.0000 -0.9525 -0.3046
vn -0.2808 -0.1286 0.9511
vn -0.2699 -0.0987 0.9578
vn -0.0000 -1.0000 -0.0000
vn -0.0000 -0.9726 0.2326
vn -0.1497 -0.0236 0.9884
vn -0.6012 0.7733 -0.2017
vn -0.0000 -0.9597 0.2809
vn 0.3930 -0.8924 0.2218
vn -0.0000 -0.9894 0.1449
vn -0.9693 0.2273 -0.0939
vn -0.0000 -0.9154 -0.4027
vn -0.0000 -0.9697 0.2443
vn 0.8310 -0.5404 0.1323
vn -0.0000 -0.9957 -0.0930
vn -0.3219 -0.1325 -0.9375
vn -0.0000 -0.9697 0.2444
vn 0.8272 -0.5308 0.1841
vn 0.7787 -0.6137 0.1304
vn -0.0000 -0.9341 -0.3570
vn -0.2789 -0.0332 0.9597
vn -0.0000 -0.9957 0.0930
vn -0.0000 -0.0000 -1.0000
vn -0.0000 -0.9643 -0.2647
vn -0.3016 -0.0359 -0.9528
vn -0.2796 -0.1151 0.9532
vn -0.2379 -0.1034 -0.9658
vn -0.2607 -0.0593 -0.9636
vn 0.9153 -0.3763 0.1436
vn -0.2607 -0.0593 0.9636
vn -0.1675 -0.0215 0.9856
vn 0.9016 -0.3964 0.1729
vn -0.2379 -0.1034 0.9658
vn 0.9101 -0.4093 0.0650
vn -0.1707 -0.0220 -0.9851
vn -0.4082 0.9087 -0.0878
vn 0.1000 -0.9950 -0.0000
vn -0.4102 -0.1490 0.8997
vn -0.4102 -0.1490 -0.8997
vn -0.9931 0.1095 -0.0413
vn -0.9719 0.2353 -0.0000
vn -0.2832 -0.0441 -0.9580
vn -0.5757 0.8176 -0.0000
vn -0.3853 -0.1958 -0.9018
vn -0.3853 -0.1958 0.9018
vn 0.6057 -0.7957 -0.0000
vn 1.0000 -0.0000 -0.0000
vn 0.2832 -0.0441 0.9580
vn -0.0654 0.9094 -0.4107
vn -0.0000 -0.0225 0.9997
vn 0.1379 -0.0188 0.9903
vn -0.0000 0.9957 0.0930
vn 0.1602 -0.0241 -0.9868
vn -0.0000 0.9697 -0.2443
vn -0.0000 0.9154 0.4027
vn 0.0179 0.9876 -0.1560
vn 0.8850 0.4541 -0.1032
vn 0.1937 -0.0144 -0.9810
vn -0.0992 -0.9908 0.0917
vn -0.1766 -0.9541 0.2417
vn 0.4851 0.8462 -0.2204
vn 0.1884 -0.0140 0.9820
vn 0.5070 0.8356 -0.2115
vn 0.9743 0.1821 -0.1328
vn 0.1521 -0.0229 0.9881
vn 0.9647 0.2380 -0.1124
vn -0.8976 -0.3937 0.1985
vn 0.1606 -0.0253 -0.9867
vn 0.2699 -0.0987 -0.9578
vn 0.9708 0.1880 -0.1493
vn 0.0042 0.9993 -0.0362
vn -0.2844 -0.9317 0.2260
vn 0.1466 -0.0200 -0.9890
vn -0.2400 -0.9309 0.2754
vn 0.4517 0.8530 -0.2614
vn 0.2808 -0.1286 -0.9511
vn 0.9590 0.2471 -0.1389
vn 0.2808 -0.1286 0.9511
vn 0.2699 -0.0987 0.9578
vn 0.1497 -0.0236 0.9884
vn 0.6012 0.7733 -0.2017
vn -0.3930 -0.8924 0.2218
vn 0.9693 0.2273 -0.0939
vn -0.8310 -0.5404 0.1323
vn 0.3219 -0.1325 -0.9375
vn -0.8272 -0.5308 0.1841
vn -0.7787 -0.6137 0.1304
vn 0.2789 -0.0332 0.9597
vn 0.3016 -0.0359 -0.9528
vn 0.2796 -0.1151 0.9532
vn 0.2379 -0.1034 -0.9658
vn 0.2607 -0.0593 -0.9636
vn -0.9153 -0.3763 0.1436
vn 0.2607 -0.0593 0.9636
vn 0.1675 -0.0215 0.9856
vn -0.9016 -0.3964 0.1729
vn 0.2379 -0.1034 0.9658
vn -0.9101 -0.4093 0.0650
vn 0.1707 -0.0220 -0.9851
vn 0.4082 0.9087 -0.0878
vn -0.1000 -0.9950 -0.0000
vn 0.4102 -0.1490 0.8997
vn 0.4102 -0.1490 -0.8997
vn 0.9931 0.1095 -0.0413
vn 0.9719 0.2353 -0.0000
vn 0.2832 -0.0441 -0.9580
vn 0.5757 0.8176 -0.0000
vn 0.3853 -0.1958 -0.9018
vn 0.3853 -0.1958 0.9018
vn -0.6057 -0.7957 -0.0000
vn -0.0000 0.9805 -0.1966
vn 0.1918 0.1133 0.9749
vn -0.9282 -0.3719 0.0132
vn -0.8779 0.4789 0.0023
vn -0.7918 -0.6037 0.0930
vn -0.0000 0.8853 0.4650
vn -0.1975 0.7737 -0.6020
vn -0.1824 0.7172 -0.6725
vn -0.1885 0.7401 -0.6456
vn 0.2847 0.6775 -0.6782
vn 0.2944 0.6994 -0.6513
vn 0.2965 0.7040 -0.6454
vn -0.1831 0.7198 -0.6695
vn -0.9298 -0.3666 -0.0339
vn -0.0845 -0.3672 -0.9263
vn 0.0475 -0.2906 0.9557
vn 0.8867 0.4321 -0.1643
vn 0.9181 -0.3913 0.0627
vn 0.9216 -0.3876 0.0218
vn 0.9016 0.4271 -0.0685
vn -0.0509 -0.2863 0.9568
vn 0.9048 0.4243 -0.0346
vn 0.6882 0.6960 -0.2049
vn 0.1379 -0.5118 -0.8479
vn 0.9232 -0.3754 -0.0822
vn -0.9201 -0.3792 0.0983
vn -0.8672 0.4865 -0.1060
vt 0.750000 0.733617
vt 0.875000 0.733617
vt 0.875000 0.750000
vt 0.750000 0.750000
vt 0.375000 0.875000
vt 0.625000 0.875000
vt 0.625000 1.000000
vt 0.375000 1.000000
vt 0.375000 0.234375
vt 0.625000 0.234375
vt 0.625000 0.250000
vt 0.375000 0.250000
vt 0.375000 0.109375
vt 0.625000 0.109375
vt 0.750000 0.609375
vt 0.875000 0.609375
vt 0.875000 0.625000
vt 0.750000 0.625000
vt 0.375000 0.047633
vt 0.625000 0.047633
vt 0.625000 0.062500
vt 0.375000 0.062500
vt 0.750000 0.671875
vt 0.875000 0.671875
vt 0.875000 0.687500
vt 0.750000 0.687500
vt 0.750000 0.546875
vt 0.875000 0.546875
vt 0.875000 0.562500
vt 0.750000 0.562500
vt 0.375000 0.171875
vt 0.625000 0.171875
vt 0.375000 0.078125
vt 0.625000 0.078125
vt 0.625000 0.093750
vt 0.375000 0.093750
vt 0.625000 0.156250
vt 0.375000 0.156250
vt 0.875000 0.578125
vt 0.375000 0.016383
vt 0.625000 0.016383
vt 0.625000 0.032766
vt 0.375000 0.032766
vt 0.750000 0.578125
vt 0.875000 0.531250
vt 0.125000 0.609375
vt 0.125000 0.625000
vt 0.750000 0.593750
vt 0.875000 0.593750
vt 0.125000 0.578125
vt 0.125000 0.593750
vt 0.875000 0.640625
vt 0.750000 0.640625
vt 0.750000 0.656250
vt 0.875000 0.656250
vt 0.875000 0.702367
vt 0.750000 0.702367
vt 0.375000 0.140625
vt 0.625000 0.140625
vt 0.375000 0.000000
vt 0.625000 0.000000
vt 0.125000 0.562500
vt 0.750000 0.717233
vt 0.875000 0.717234
vt 0.625000 0.203125
vt 0.375000 0.203125
vt 0.625000 0.187500
vt 0.375000 0.187500
vt 0.750000 0.531250
vt 0.750000 0.500000
vt 0.875000 0.500000
vt 0.875000 0.515625
vt 0.750000 0.515625
vt 0.375000 0.218750
vt 0.625000 0.218750
vt 0.125000 0.500000
vt 0.250000 0.500000
vt 0.250000 0.515625
vt 0.125000 0.515625
vt 0.125000 0.531250
vt 0.250000 0.531250
vt 0.250000 0.546875
vt 0.125000 0.546875
vt 0.125000 0.717234
vt 0.250000 0.717234
vt 0.250000 0.733617
vt 0.125000 0.733617
vt 0.125000 0.687500
vt 0.250000 0.687500
vt 0.250000 0.702367
vt 0.125000 0.702367
vt 0.125000 0.656250
vt 0.250000 0.656250
vt 0.250000 0.671875
vt 0.125000 0.671875
vt 0.250000 0.625000
vt 0.250000 0.640625
vt 0.125000 0.640625
vt 0.250000 0.593750
vt 0.250000 0.609375
vt 0.250000 0.562500
vt 0.250000 0.578125
vt 0.625000 0.375000
vt 0.375000 0.375000
vt 0.250000 0.750000
vt 0.125000 0.750000
vt 0.375000 0.125000
vt 0.625000 0.125000
s 0
usemtl Material.001
f 87/1/1 48/2/1 3/3/1 59/4/1
f 60/5/2 59/6/2 3/7/2 4/8/2
f 56/9/3 54/10/3 1/11/3 2/12/3
f 36/13/4 34/14/4 101/14/4 102/13/4
f 78/15/5 32/16/5 6/17/5 63/18/5
f 44/19/3 42/20/3 8/21/3 7/22/3
f 82/23/6 40/24/6 8/25/6 65/26/6
f 89/27/7 52/28/7 9/29/7 66/30/7
f 28/31/8 26/32/8 39/32/8 31/31/8
f 82/23/3 65/26/3 192/26/3 191/23/3
f 38/33/3 40/34/3 11/35/3 12/36/3
f 16/37/9 14/38/9 25/38/9 27/37/9
f 174/39/10 26/39/10 202/39/10 216/39/10
f 46/40/3 48/41/3 20/42/3 18/43/3
f 77/44/11 26/39/11 174/39/11 185/44/11
f 200/28/12 199/29/12 227/29/12 228/28/12
f 52/28/13 22/45/13 55/45/13 57/28/13
f 66/30/14 9/29/14 26/39/14 77/44/14
f 26/32/15 28/31/15 21/31/15 13/32/15
f 30/46/16 5/47/16 95/47/16 96/46/16
f 70/48/17 16/49/17 32/16/17 78/15/17
f 28/50/18 14/51/18 19/51/18 21/50/18
f 16/49/19 26/39/19 13/39/19 17/49/19
f 63/18/20 6/17/20 34/52/20 81/53/20
f 12/36/3 11/35/3 34/14/3 36/13/3
f 7/22/3 8/21/3 40/34/3 38/33/3
f 68/54/21 11/55/21 40/24/21 82/23/21
f 14/38/22 16/37/22 17/37/22 19/38/22
f 32/16/23 16/49/23 27/49/23 29/16/23
f 65/26/24 8/25/24 42/56/24 84/57/24
f 29/16/25 27/49/25 93/16/25
f 30/58/26 32/59/26 29/59/26 15/58/26
f 18/43/3 20/42/3 42/20/3 44/19/3
f 4/60/3 3/61/3 48/41/3 46/40/3
f 17/49/27 13/39/27 92/49/27
f 35/62/28 31/50/28 23/62/28
f 73/63/29 20/64/29 48/2/29 87/1/29
f 52/65/30 50/66/30 49/66/30 41/65/30
f 37/67/31 35/68/31 23/67/31
f 39/39/32 37/29/32 23/39/32
f 75/69/33 22/45/33 52/28/33 89/27/33
f 61/70/34 1/71/34 54/72/34 90/73/34
f 14/51/35 30/46/35 15/46/35 25/51/35
f 9/67/36 10/68/36 35/68/36 37/67/36
f 24/74/3 22/75/3 54/10/3 56/9/3
f 2/76/37 58/77/37 91/78/37 56/79/37
f 10/62/38 28/50/38 31/50/38 35/62/38
f 26/39/39 9/29/39 37/29/39 39/39/39
f 24/80/40 74/81/40 88/82/40 50/83/40
f 41/65/41 49/66/41 33/65/41
f 18/84/42 72/85/42 86/86/42 46/87/42
f 7/88/43 64/89/43 85/90/43 44/91/43
f 45/29/44 41/28/44 33/29/44
f 12/92/45 69/93/45 83/94/45 38/95/45
f 47/68/46 45/67/46 33/68/46
f 31/31/47 39/32/47 23/31/47
f 5/47/48 62/96/48 80/97/48 36/98/48
f 14/51/49 71/99/49 79/100/49 30/46/49
f 10/68/50 9/67/50 45/67/50 47/68/50
f 9/29/51 52/28/51 41/28/51 45/29/51
f 10/62/52 67/101/52 76/102/52 28/50/52
f 50/83/53 10/62/53 47/62/53 49/83/53
f 56/79/54 91/78/54 74/81/54 24/80/54
f 57/28/55 55/45/55 43/28/55
f 44/91/56 85/90/56 72/85/56 18/84/56
f 28/50/57 76/102/57 71/99/57 14/51/57
f 53/80/58 51/83/58 43/80/58
f 36/98/59 80/97/59 69/93/59 12/92/59
f 55/75/60 53/74/60 43/75/60
f 50/83/61 88/82/61 67/101/61 10/62/61
f 49/83/62 47/62/62 33/83/62
f 24/80/63 50/83/63 51/83/63 53/80/63
f 38/95/64 83/94/64 64/89/64 7/88/64
f 50/66/65 52/65/65 57/65/65 51/66/65
f 30/46/66 79/100/66 62/96/66 5/47/66
f 2/12/67 1/11/67 61/103/67 58/104/67
f 46/87/68 86/86/68 60/105/68 4/106/68
f 22/75/69 24/74/69 53/74/69 55/75/69
f 51/66/70 57/65/70 43/66/70
f 27/37/71 25/38/71 93/37/71
f 13/32/72 21/31/72 92/32/72
f 21/50/73 19/51/73 92/50/73
f 19/38/74 17/37/74 92/38/74
f 5/107/75 6/108/75 94/108/75 95/107/75
f 25/51/76 15/46/76 93/51/76
f 15/58/77 29/59/77 93/58/77
f 96/46/78 95/47/78 98/46/78
f 32/59/79 30/58/79 96/58/79 97/59/79
f 6/17/80 32/16/80 97/16/80 94/17/80
f 5/47/81 36/98/81 102/98/81 99/47/81
f 95/107/82 94/108/82 98/107/82
f 97/59/83 96/58/83 98/59/83
f 94/17/84 97/16/84 98/17/84
f 101/52/85 100/17/85 103/52/85
f 6/108/86 5/107/86 99/107/86 100/108/86
f 34/52/87 6/17/87 100/17/87 101/52/87
f 100/108/88 99/107/88 103/108/88
f 102/13/89 101/14/89 103/13/89
f 99/47/90 102/98/90 103/47/90
f 87/1/1 59/4/1 106/3/1 151/2/1
f 60/5/2 107/8/2 106/7/2 59/6/2
f 159/9/91 105/12/91 104/11/91 157/10/91
f 139/13/92 171/13/92 170/14/92 137/14/92
f 89/27/3 66/30/3 190/30/3 189/27/3
f 147/19/91 110/22/91 111/21/91 145/20/91
f 90/73/93 54/72/93 180/72/93 188/73/93
f 63/18/94 109/17/94 195/17/94 194/18/94
f 131/31/95 134/31/95 142/32/95 129/32/95
f 81/53/96 68/54/96 114/55/96 137/52/96
f 141/33/91 115/36/91 114/35/91 143/34/91
f 119/37/97 130/37/97 128/38/97 117/38/97
f 77/44/98 70/48/98 119/49/98 129/39/98
f 149/40/91 121/43/91 123/42/91 151/41/91
f 84/57/99 73/63/99 123/64/99 145/56/99
f 90/73/100 75/69/100 125/45/100 157/72/100
f 155/28/101 160/28/101 158/45/101 125/45/101
f 66/30/14 77/44/14 129/39/14 112/29/14
f 129/32/102 116/32/102 124/31/102 131/31/102
f 133/46/103 165/46/103 164/47/103 108/47/103
f 70/48/17 78/15/17 135/16/17 119/49/17
f 131/50/104 124/50/104 122/51/104 117/51/104
f 119/49/105 120/49/105 116/39/105 129/39/105
f 63/18/20 81/53/20 137/52/20 109/17/20
f 115/36/91 139/13/91 137/14/91 114/35/91
f 110/22/91 141/33/91 143/34/91 111/21/91
f 68/54/21 82/23/21 143/24/21 114/55/21
f 117/38/106 122/38/106 120/37/106 119/37/106
f 135/16/107 132/16/107 130/49/107 119/49/107
f 65/26/24 84/57/24 145/56/24 111/25/24
f 132/16/108 162/16/108 130/49/108
f 133/58/109 118/58/109 132/59/109 135/59/109
f 121/43/91 147/19/91 145/20/91 123/42/91
f 107/60/91 149/40/91 151/41/91 106/61/91
f 120/49/110 161/49/110 116/39/110
f 138/62/111 126/62/111 134/50/111
f 73/63/29 87/1/29 151/2/29 123/64/29
f 155/65/112 144/65/112 152/66/112 153/66/112
f 140/67/113 126/67/113 138/68/113
f 142/39/114 126/39/114 140/29/114
f 75/69/33 89/27/33 155/28/33 125/45/33
f 61/70/115 90/73/115 157/72/115 104/71/115
f 117/51/116 128/51/116 118/46/116 133/46/116
f 112/67/117 140/67/117 138/68/117 113/68/117
f 127/74/91 159/9/91 157/10/91 125/75/91
f 105/76/37 159/79/37 91/78/37 58/77/37
f 113/62/118 138/62/118 134/50/118 131/50/118
f 129/39/119 142/39/119 140/29/119 112/29/119
f 127/80/40 153/83/40 88/82/40 74/81/40
f 144/65/120 136/65/120 152/66/120
f 121/84/42 149/87/42 86/86/42 72/85/42
f 110/88/43 147/91/43 85/90/43 64/89/43
f 148/29/121 136/29/121 144/28/121
f 115/92/45 141/95/45 83/94/45 69/93/45
f 150/68/122 136/68/122 148/67/122
f 134/31/123 126/31/123 142/32/123
f 108/47/48 139/98/48 80/97/48 62/96/48
f 117/51/49 133/46/49 79/100/49 71/99/49
f 113/68/124 150/68/124 148/67/124 112/67/124
f 112/29/125 148/29/125 144/28/125 155/28/125
f 113/62/52 131/50/52 76/102/52 67/101/52
f 153/83/126 152/83/126 150/62/126 113/62/126
f 159/79/54 127/80/54 74/81/54 91/78/54
f 160/28/127 146/28/127 158/45/127
f 147/91/56 121/84/56 72/85/56 85/90/56
f 131/50/57 117/51/57 71/99/57 76/102/57
f 156/80/128 146/80/128 154/83/128
f 139/98/59 115/92/59 69/93/59 80/97/59
f 158/75/129 146/75/129 156/74/129
f 153/83/61 113/62/61 67/101/61 88/82/61
f 152/83/130 136/83/130 150/62/130
f 127/80/131 156/80/131 154/83/131 153/83/131
f 141/95/64 110/88/64 64/89/64 83/94/64
f 153/66/132 154/66/132 160/65/132 155/65/132
f 133/46/66 108/47/66 62/96/66 79/100/66
f 105/12/67 58/104/67 61/103/67 104/11/67
f 149/87/68 107/106/68 60/105/68 86/86/68
f 125/75/133 158/75/133 156/74/133 127/74/133
f 154/66/134 146/66/134 160/65/134
f 130/37/135 162/37/135 128/38/135
f 116/32/136 161/32/136 124/31/136
f 124/50/137 161/50/137 122/51/137
f 122/38/138 161/38/138 120/37/138
f 108/107/139 164/107/139 163/108/139 109/108/139
f 128/51/140 162/51/140 118/46/140
f 118/58/141 162/58/141 132/59/141
f 165/46/142 167/46/142 164/47/142
f 135/59/143 166/59/143 165/58/143 133/58/143
f 109/17/144 163/17/144 166/16/144 135/16/144
f 108/47/145 168/47/145 171/98/145 139/98/145
f 164/107/146 167/107/146 163/108/146
f 166/59/147 167/59/147 165/58/147
f 163/17/148 167/17/148 166/16/148
f 170/52/149 172/52/149 169/17/149
f 109/108/150 169/108/150 168/107/150 108/107/150
f 137/52/151 170/52/151 169/17/151 109/17/151
f 169/108/152 172/108/152 168/107/152
f 171/13/153 172/13/153 170/14/153
f 168/47/154 172/47/154 171/98/154
f 186/53/96 176/52/96 175/55/96 181/54/96
f 185/44/98 174/39/98 173/49/98 182/48/98
f 187/57/99 178/56/99 177/64/99 183/63/99
f 188/73/155 180/72/155 179/45/155 184/69/155
f 193/15/5 194/18/5 195/17/5 196/16/5
f 191/23/6 192/26/6 197/25/6 198/24/6
f 189/27/7 190/30/7 199/29/7 200/28/7
f 135/16/11 78/15/11 193/15/11 196/16/11
f 65/26/94 111/25/94 197/25/94 192/26/94
f 66/30/94 112/29/94 199/29/94 190/30/94
f 22/45/156 179/45/156 221/45/156 207/45/156
f 78/15/3 63/18/3 194/18/3 193/15/3
f 81/53/11 34/52/11 176/52/11 186/53/11
f 75/69/91 90/73/91 188/73/91 184/69/91
f 11/55/94 68/54/94 181/54/94 175/55/94
f 143/24/11 82/23/11 191/23/11 198/24/11
f 73/63/91 84/57/91 187/57/91 183/63/91
f 16/49/94 70/48/94 182/48/94 173/49/94
f 84/57/11 42/56/11 178/56/11 187/57/11
f 34/14/157 11/35/157 203/35/157 204/14/157
f 198/24/158 197/25/158 225/25/158 226/24/158
f 70/48/91 77/44/91 185/44/91 182/48/91
f 20/64/94 73/63/94 183/63/94 177/64/94
f 54/10/159 22/75/159 207/75/159 208/10/159
f 178/56/10 42/56/10 206/56/10 220/56/10
f 68/54/91 81/53/91 186/53/91 181/54/91
f 22/45/160 75/69/160 184/69/160 179/45/160
f 155/28/11 89/27/11 189/27/11 200/28/11
f 204/14/161 203/35/161 217/35/161 218/14/161
f 208/10/162 207/75/162 221/75/162 222/10/162
f 206/20/163 205/42/163 219/42/163 220/20/163
f 213/29/164 214/28/164 228/28/164 227/29/164
f 209/17/165 210/16/165 224/16/165 223/17/165
f 211/21/166 212/34/166 226/34/166 225/21/166
f 202/39/167 201/49/167 215/49/167 216/39/167
f 42/20/168 20/42/168 205/42/168 206/20/168
f 143/24/169 198/24/169 226/24/169 212/24/169
f 11/55/170 175/55/170 217/55/170 203/55/170
f 176/52/10 34/52/10 204/52/10 218/52/10
f 173/49/171 174/39/171 216/39/171 215/49/171
f 16/49/170 173/49/170 215/49/170 201/49/170
f 112/29/172 155/28/172 214/28/172 213/29/172
f 109/17/173 135/16/173 210/16/173 209/17/173
f 175/55/174 176/52/174 218/52/174 217/55/174
f 195/17/175 109/17/175 209/17/175 223/17/175
f 155/28/169 200/28/169 228/28/169 214/28/169
f 135/16/169 196/16/169 224/16/169 210/16/169
f 177/64/176 178/56/176 220/56/176 219/64/176
f 197/25/175 111/25/175 211/25/175 225/25/175
f 179/45/177 180/72/177 222/72/177 221/45/177
f 180/72/178 54/72/178 208/72/178 222/72/178
f 111/21/179 143/34/179 212/34/179 211/21/179
f 199/29/175 112/29/175 213/29/175 227/29/175
f 26/39/180 16/49/180 201/49/180 202/39/180
f 20/64/170 177/64/170 219/64/170 205/64/170
f 196/16/181 195/17/181 223/17/181 224/16/181
