# Blender 3.6.2
# www.blender.org
mtllib triceraskullfixed.mtl
o Skull
v 1.109091 -9.227592 23.427626
v 1.109091 -12.463782 23.056974
v 1.649213 -9.622368 27.406677
v 1.649213 -12.899370 27.031351
v -1.109091 -9.227592 23.427626
v -1.109091 -12.463782 23.056974
v -1.649213 -9.622368 27.406677
v -1.649213 -12.899370 27.031351
v 0.000000 -9.622368 27.406677
v 0.000000 -12.899370 27.031351
v 0.000000 -9.227592 23.427626
v 0.000000 -12.463782 23.056974
v 3.794184 -9.056018 22.461845
v 2.551578 -9.119170 22.480993
v 2.551578 -12.355361 22.110342
v 3.794184 -12.333021 22.086519
v -3.794184 -12.333021 22.086519
v -3.794184 -9.056018 22.461845
v -2.551578 -9.119170 22.480993
v -2.551578 -12.355361 22.110342
v 3.794184 -8.018923 13.406909
v 2.551578 -8.082075 13.426060
v 2.551578 -11.318266 13.055407
v 3.794184 -11.295926 13.031582
v -3.794184 -11.295926 13.031582
v -3.794184 -8.018923 13.406909
v -2.551578 -8.082075 13.426060
v -2.551578 -11.318266 13.055407
v 3.794184 -7.191673 6.184142
v 2.551578 -7.254826 6.203290
v 2.551578 -10.491016 5.832637
v 3.794184 -10.468677 5.808815
v -3.794184 -10.468677 5.808815
v -3.794184 -7.191673 6.184142
v -2.551578 -7.254826 6.203290
v -2.551578 -10.491016 5.832637
v 3.794184 -5.904816 4.878800
v 2.551578 -5.970179 4.869721
v 2.551578 -8.753144 3.176966
v 3.794184 -8.722878 3.164699
v -3.794184 -8.722878 3.164699
v -3.794184 -5.904816 4.878800
v -2.551578 -5.970179 4.869721
v -2.551578 -8.753144 3.176966
v 3.794184 -2.995929 3.417723
v 2.551578 -3.028008 3.360054
v 2.551578 -3.350556 0.118716
v 3.794184 -3.322546 0.135508
v -3.794184 -3.322546 0.135508
v -3.794184 -2.995929 3.417723
v -2.551578 -3.028008 3.360054
v -2.551578 -3.350556 0.118716
v 2.451735 7.319654 13.288833
v 2.451735 2.154327 11.170663
v 2.451735 -0.048530 28.299683
v 2.451735 -3.790701 26.759296
v -2.451735 7.319654 13.288833
v -2.451735 2.154327 11.170663
v -2.451735 -0.048530 28.299683
v -2.451735 -3.790701 26.759296
v -2.451735 -5.305916 30.086182
v -2.451735 -1.563746 31.626570
v 2.451735 -1.563746 31.626570
v 2.451735 -5.305916 30.086182
v -1.778591 -7.522095 30.989162
v -1.778591 -6.302048 34.850998
v 1.778591 -6.302048 34.850998
v 1.778591 -7.522095 30.989162
v -1.226346 -9.808235 30.909981
v -1.226346 -10.605409 33.586254
v 1.226346 -10.605409 33.586254
v 1.226346 -9.808235 30.909981
v -0.769261 -13.047277 29.521027
v -0.769261 -13.547326 31.199797
v 0.769261 -13.547326 31.199797
v 0.769261 -13.047277 29.521027
v -0.314424 -15.813777 28.150309
v -0.314424 -16.018166 28.836481
v 0.314424 -16.018166 28.836481
v 0.314424 -15.813777 28.150309
v 2.451735 6.070498 6.420150
v -2.451735 6.070498 6.420150
v 2.451735 11.235827 8.538321
v -2.451735 11.235827 8.538321
v 2.451735 8.723458 -0.153292
v -2.451735 8.723458 -0.153292
v 2.451735 17.723618 -0.096931
v -2.451735 17.723618 -0.096931
v 6.475713 7.319654 13.288833
v 6.475713 2.154327 11.170663
v -6.475713 7.319654 13.288833
v -6.475713 2.154327 11.170663
v 6.475713 11.235827 8.538321
v 6.475713 6.070498 6.420150
v -6.475713 11.235827 8.538321
v -6.475713 6.070498 6.420150
v 2.451735 8.658598 3.006812
v 2.451735 3.141583 5.388216
v -2.451735 8.658598 3.006812
v -2.451735 3.141583 5.388216
v 6.475713 8.658598 3.006812
v 6.475713 3.141583 5.388216
v -6.475713 8.658598 3.006812
v -6.475713 3.141583 5.388216
v 2.451734 0.163299 0.719108
v 2.451734 -0.456650 6.996982
v -2.451734 0.163299 0.719108
v -2.451734 -0.456650 6.996982
v 6.475713 0.163299 0.719108
v 6.475713 -0.456650 6.996982
v -6.475713 0.163299 0.719108
v -6.475713 -0.456650 6.996982
v 2.065210 -5.646482 6.318101
v 2.065210 4.157611 11.371404
v -2.065210 -5.646482 6.318101
v -2.065210 4.157611 11.371404
v 5.454794 -5.646482 6.318101
v 5.454794 4.157611 11.371404
v -5.454794 -5.646482 6.318101
v -5.454794 4.157611 11.371404
v 1.611751 -6.618828 17.028246
v 1.611751 -1.165749 22.272774
v -1.611751 -6.618828 17.028246
v -1.611751 -1.165749 22.272774
v 4.257082 -6.618828 17.028246
v 4.257082 -1.165749 22.272774
v -4.257082 -6.618828 17.028246
v -4.257082 -1.165749 22.272774
v 0.463183 -9.757627 31.553175
v 1.611751 -5.632763 22.825455
v -0.463183 -9.757627 31.553175
v -1.611751 -5.632763 22.825455
v 1.223395 -9.757627 31.553175
v 4.257082 -5.632763 22.825455
v -1.223395 -9.757627 31.553175
v -4.257082 -5.632763 22.825455
v 0.587578 -4.529686 33.210205
v 0.587578 -6.288219 27.782015
v -0.587578 -4.529686 33.210205
v -0.587578 -6.288219 27.782015
v 1.551958 -4.529686 33.210205
v 1.551958 -6.288219 27.782015
v -1.551958 -4.529686 33.210205
v -1.551958 -6.288219 27.782015
v 2.451735 8.658598 0.941609
v 6.475713 8.658598 0.941609
v -6.475713 8.658598 0.941609
v -2.451735 8.658598 0.941609
v 2.451734 3.765845 -1.346094
v 6.475713 3.765845 -1.346094
v -6.475713 3.765845 -1.346094
v -2.451734 3.765845 -1.346094
v 3.190829 0.032161 -0.139455
v 8.427867 0.032161 -0.139455
v -8.427867 0.032161 -0.139455
v -3.190829 0.032161 -0.139455
v 3.190829 0.032161 -2.204657
v 8.427867 0.032161 -2.204657
v -8.427867 0.032161 -2.204657
v -3.190829 0.032161 -2.204657
v 5.935251 21.303265 -11.051627
v -5.935251 21.303265 -11.051627
v 8.212236 32.756638 -12.158858
v -8.212236 32.756638 -12.158858
v 6.279470 14.661757 0.510903
v 6.279470 10.199119 -1.598797
v -6.279470 14.661757 0.510903
v -6.279470 10.199119 -1.598797
v 14.910247 20.834099 -8.960657
v 11.261765 15.464591 -8.450860
v -14.910247 20.834099 -8.960657
v -11.261765 15.464591 -8.450860
v 6.119092 9.396101 6.132777
v 6.119092 5.210076 4.023075
v -6.119092 9.396101 6.132777
v -6.119092 5.210076 4.023075
v 14.304542 12.161273 -4.290351
v 10.804275 7.581837 -3.780557
v -14.304542 12.161273 -4.290351
v -10.804275 7.581837 -3.780557
v 4.463724 29.243126 27.372410
v -4.463724 29.243126 27.372410
v 0.000000 7.858750 33.909512
vn 0.0289 0.9949 0.0963
vn -0.0000 -0.1138 0.9935
vn 0.5512 0.0949 -0.8290
vn -0.0000 0.1138 -0.9935
vn -0.0000 0.9951 0.0987
vn -0.0000 -0.9940 -0.1089
vn -0.0487 0.9923 0.1137
vn 0.0157 -0.9934 -0.1138
vn 0.9183 -0.0450 0.3932
vn -0.5512 0.0949 -0.8290
vn -0.0093 -0.9941 -0.1082
vn -0.9183 -0.0450 0.3932
vn 0.0093 -0.9941 -0.1082
vn -0.0289 0.9949 0.0963
vn -1.0000 -0.0000 -0.0000
vn -0.0157 -0.9934 -0.1138
vn 1.0000 -0.0000 -0.0000
vn 0.0487 0.9923 0.1137
vn -0.0131 -0.4909 -0.8711
vn -0.0097 -0.8356 -0.5493
vn 0.0097 -0.8356 -0.5493
vn -0.0342 0.7158 0.6975
vn 0.0342 0.7158 0.6975
vn -0.0211 0.9949 -0.0990
vn 0.0211 0.9949 -0.0990
vn 0.0131 -0.4909 -0.8711
vn -0.0417 0.4523 0.8909
vn 0.0417 0.4523 0.8909
vn -0.0000 0.8977 0.4406
vn -0.0000 -0.9344 -0.3563
vn -0.0000 -0.7716 -0.6361
vn -0.0000 0.5626 0.8267
vn -0.0000 -0.9101 -0.4145
vn -0.0000 -0.2355 0.9719
vn -0.0000 0.0346 -0.9994
vn -0.9858 -0.1235 0.1135
vn -0.0000 -0.3773 -0.9261
vn 0.9858 -0.1235 0.1135
vn -0.0000 -0.6300 0.7766
vn 0.9858 -0.1674 0.0108
vn -0.0000 -0.2820 0.9594
vn -0.9858 -0.1674 0.0108
vn -0.0000 -0.6912 0.7227
vn -0.9916 -0.1241 -0.0370
vn -0.0000 0.3941 -0.9191
vn 0.9916 -0.1241 -0.0370
vn -0.0000 -0.9584 -0.2855
vn -0.9890 -0.1417 -0.0422
vn -0.0000 0.4440 -0.8960
vn 0.9890 -0.1417 -0.0422
vn -0.0000 0.7995 0.6007
vn -0.0000 0.7716 0.6361
vn -0.0000 -0.3794 0.9252
vn -0.4210 0.4897 0.7635
vn -0.1997 -0.8291 -0.5222
vn -0.0749 0.1584 -0.9845
vn -0.0000 -0.9273 -0.3743
vn -0.9970 0.0598 0.0493
vn -0.0000 -0.3323 0.9432
vn 0.9970 0.0598 0.0493
vn -0.0000 0.9064 -0.4223
vn -0.0000 -0.6939 -0.7200
vn -0.0000 0.6880 -0.7257
vn -0.0000 1.0000 -0.0000
vn -0.0000 0.4082 0.9129
vn -0.9938 -0.0621 0.0921
vn -0.0000 0.8986 0.4388
vn 0.9621 -0.2117 0.1716
vn -0.9943 0.0828 -0.0671
vn -0.9621 -0.2117 0.1716
vn 0.9943 0.0828 -0.0671
vn -0.0000 -0.9774 -0.2112
vn -0.9935 0.1122 -0.0191
vn 0.9991 0.0236 -0.0350
vn -0.0000 -0.9959 -0.0904
vn 0.9938 -0.0621 0.0921
vn -0.9991 0.0236 -0.0350
vn -0.0000 -0.3021 0.9533
vn -0.0000 0.9914 0.1311
vn -0.0000 0.1228 0.9924
vn -0.9571 -0.2855 0.0486
vn 0.9935 0.1122 -0.0191
vn 0.9571 -0.2855 0.0486
vn -0.0000 0.9513 -0.3082
vn 0.9590 0.1620 0.2326
vn -0.9938 -0.0636 -0.0913
vn -0.9590 0.1620 0.2326
vn 0.9938 -0.0636 -0.0913
vn -0.0000 0.4236 -0.9059
vn -0.0000 -0.9885 0.1510
vn -0.0000 0.2241 -0.9746
vn -0.0000 -1.0000 -0.0000
vn 0.7192 0.5236 0.4567
vn 0.9391 -0.2589 -0.2258
vn -0.7192 0.5236 0.4567
vn -0.9391 -0.2589 -0.2258
vn -0.0000 -0.0962 -0.9954
vn -0.0000 -0.6548 -0.7558
vn -0.0000 0.6258 0.7800
vn -0.2103 -0.6375 -0.7412
vn -0.5561 0.4737 0.6829
vn -0.5914 -0.4861 -0.6434
vn 0.4065 -0.3764 0.8325
vn -0.2153 -0.1683 -0.9619
vn 0.4210 0.4897 0.7635
vn 0.2103 -0.6375 -0.7412
vn 0.5484 0.6422 0.5356
vn 0.2153 -0.1683 -0.9619
vn -0.7978 -0.4008 0.4504
vn 0.7978 -0.4008 0.4504
vn 0.5161 -0.4458 -0.7314
vn 0.5561 0.4737 0.6829
vn 0.5914 -0.4861 -0.6434
vn -0.5161 -0.4458 -0.7314
vn 0.0749 0.1584 -0.9845
vn 0.1997 -0.8291 -0.5222
vn -0.5484 0.6422 0.5356
vn -0.4065 -0.3764 0.8325
vn -0.0000 0.5786 -0.8156
vn 0.9684 0.2269 0.1034
vn -0.0000 0.7228 -0.6911
vn -0.0000 -0.5405 0.8414
vn -0.9684 0.2269 0.1034
vt 0.375000 0.750000
vt 0.375000 0.500000
vt 0.375000 0.375000
vt 0.625000 0.375000
vt 0.625000 0.500000
vt 0.625000 0.750000
vt 0.375000 0.875000
vt 0.625000 0.875000
vt 0.625000 1.000000
vt 0.375000 1.000000
vt 0.250000 0.500000
vt 0.250000 0.750000
vt 0.750000 0.500000
vt 0.875000 0.500000
vt 0.875000 0.750000
vt 0.750000 0.750000
vt 0.125000 0.500000
vt 0.125000 0.750000
vt 0.375000 0.250000
vt 0.625000 0.250000
vt 0.375000 0.000000
vt 0.625000 0.000000
vt 0.000000 0.000000
s 0
usemtl Material
f 5/1/1 19/1/1 18/2/1 7/2/1
f 9/3/2 7/2/2 8/5/2 10/4/2
f 6/6/3 20/6/3 19/1/3 5/1/3
f 11/7/4 1/10/4 2/9/4 12/8/4
f 9/11/5 11/12/5 5/1/5 7/2/5
f 10/13/6 12/16/6 2/15/6 4/14/6
f 8/5/6 6/6/6 12/16/6 10/13/6
f 3/17/5 1/18/5 11/12/5 9/11/5
f 5/1/4 11/7/4 12/8/4 6/6/4
f 3/19/2 9/3/2 10/4/2 4/20/2
f 13/17/7 21/17/7 22/18/7 14/18/7
f 15/15/8 23/15/8 24/14/8 16/14/8
f 4/20/9 16/20/9 13/19/9 3/19/9
f 1/10/10 14/10/10 15/9/10 2/9/10
f 8/5/11 17/5/11 20/6/11 6/6/11
f 7/2/12 18/2/12 17/5/12 8/5/12
f 2/15/13 15/15/13 16/14/13 4/14/13
f 3/17/14 13/17/14 14/18/14 1/18/14
f 26/2/15 34/2/15 33/5/15 25/5/15
f 25/5/16 33/5/16 36/6/16 28/6/16
f 20/6/17 28/6/17 27/1/17 19/1/17
f 19/1/18 27/1/18 26/2/18 18/2/18
f 16/20/17 24/20/17 21/19/17 13/19/17
f 14/10/15 22/10/15 23/9/15 15/9/15
f 17/5/16 25/5/16 28/6/16 20/6/16
f 18/2/15 26/2/15 25/5/15 17/5/15
f 30/10/15 38/10/15 39/9/15 31/9/15
f 32/20/17 40/20/17 37/19/17 29/19/17
f 23/15/8 31/15/8 32/14/8 24/14/8
f 21/17/7 29/17/7 30/18/7 22/18/7
f 28/6/17 36/6/17 35/1/17 27/1/17
f 27/1/18 35/1/18 34/2/18 26/2/18
f 24/20/17 32/20/17 29/19/17 21/19/17
f 22/10/15 30/10/15 31/9/15 23/9/15
f 42/2/15 50/2/15 49/5/15 41/5/15
f 41/5/19 49/5/19 52/6/19 44/6/19
f 33/5/20 41/5/20 44/6/20 36/6/20
f 34/2/15 42/2/15 41/5/15 33/5/15
f 31/15/21 39/15/21 40/14/21 32/14/21
f 29/17/22 37/17/22 38/18/22 30/18/22
f 36/6/17 44/6/17 43/1/17 35/1/17
f 35/1/23 43/1/23 42/2/23 34/2/23
f 46/21/24 45/19/24 48/20/24 47/22/24
f 50/2/25 51/1/25 52/6/25 49/5/25
f 39/15/26 47/15/26 48/14/26 40/14/26
f 37/17/27 45/17/27 46/18/27 38/18/27
f 44/6/17 52/6/17 51/1/17 43/1/17
f 43/1/28 51/1/28 50/2/28 42/2/28
f 40/20/17 48/20/17 45/19/17 37/19/17
f 38/10/15 46/10/15 47/9/15 39/9/15
f 53/5/29 57/14/29 59/15/29 55/6/29
f 59/22/15 60/21/15 61/21/15 62/22/15
f 60/21/15 59/22/15 57/20/15 58/19/15
f 58/17/30 54/2/30 56/1/30 60/18/30
f 54/2/17 53/5/17 55/6/17 56/1/17
f 54/2/31 58/17/31 82/17/31 81/2/31
f 63/6/32 62/15/32 66/15/32 67/6/32
f 60/18/33 56/1/33 64/1/33 61/18/33
f 62/15/34 63/6/34 183/15/34
f 56/1/17 55/6/17 63/6/17 64/1/17
f 65/18/35 68/1/35 72/1/35 69/18/35
f 62/22/36 61/21/36 65/21/36 66/22/36
f 61/18/37 64/1/37 68/1/37 65/18/37
f 64/1/38 63/6/38 67/6/38 68/1/38
f 71/6/39 70/15/39 74/15/39 75/6/39
f 68/1/40 67/6/40 71/6/40 72/1/40
f 67/6/41 66/15/41 70/15/41 71/6/41
f 66/22/42 65/21/42 69/21/42 70/22/42
f 75/6/43 74/15/43 78/15/43 79/6/43
f 70/22/44 69/21/44 73/21/44 74/22/44
f 69/18/45 72/1/45 76/1/45 73/18/45
f 72/1/46 71/6/46 75/6/46 76/1/46
f 80/1/47 79/6/47 78/9/47 77/10/47
f 74/22/48 73/21/48 77/21/48 78/22/48
f 73/18/49 76/1/49 80/1/49 77/18/49
f 76/1/50 75/6/50 79/6/50 80/1/50
f 84/14/51 83/5/51 87/5/51 88/14/51
f 57/14/52 53/5/52 83/5/52 84/14/52
f 58/19/53 57/20/53 91/20/53 92/19/53
f 81/2/15 83/5/15 97/5/15 98/2/15
f 88/14/54 164/14/54 171/14/54 167/14/54
f 81/2/55 85/2/55 166/2/55 174/2/55
f 85/23/56 87/23/56 165/23/56 166/23/56
f 81/2/57 82/17/57 86/17/57 85/2/57
f 89/5/17 90/2/17 94/2/17 93/5/17
f 92/19/15 91/20/15 95/20/15 96/19/15
f 95/20/58 91/20/58 182/20/58
f 82/17/31 58/17/31 92/17/31 96/17/31
f 94/2/59 81/2/59 98/2/59 102/2/59
f 57/14/60 84/14/60 182/14/60
f 54/2/31 81/2/31 94/2/31 90/2/31
f 53/5/53 54/2/53 90/2/53 89/5/53
f 101/5/17 102/2/17 110/2/17 109/5/17
f 101/5/17 109/5/17 150/5/17 146/5/17
f 95/14/61 84/14/61 99/14/61 103/14/61
f 96/19/15 95/20/15 103/20/15 104/19/15
f 83/5/61 93/5/61 101/5/61 97/5/61
f 84/20/17 82/19/17 100/19/17 99/20/17
f 82/17/59 96/17/59 104/17/59 100/17/59
f 93/5/17 94/2/17 102/2/17 101/5/17
f 105/5/62 109/5/62 117/5/62 113/5/62
f 108/17/63 112/17/63 120/17/63 116/17/63
f 98/2/15 97/5/15 105/5/15 106/2/15
f 97/5/64 101/5/64 146/5/64 145/5/64
f 102/2/65 98/2/65 106/2/65 110/2/65
f 104/19/15 103/20/15 111/20/15 112/19/15
f 99/20/17 100/19/17 108/19/17 107/20/17
f 100/17/65 104/17/65 112/17/65 108/17/65
f 120/19/66 119/20/66 127/20/66 128/19/66
f 118/2/67 114/2/67 122/2/67 126/2/67
f 109/5/68 110/2/68 118/2/68 117/5/68
f 106/2/69 105/5/69 113/5/69 114/2/69
f 111/14/62 107/14/62 115/14/62 119/14/62
f 110/2/63 106/2/63 114/2/63 118/2/63
f 112/19/70 111/20/70 119/20/70 120/19/70
f 107/20/71 108/19/71 116/19/71 115/20/71
f 127/14/72 123/14/72 131/14/72 135/14/72
f 122/2/73 121/5/73 129/5/73 130/2/73
f 115/20/74 116/19/74 124/19/74 123/20/74
f 116/17/67 120/17/67 128/17/67 124/17/67
f 113/5/75 117/5/75 125/5/75 121/5/75
f 117/5/76 118/2/76 126/2/76 125/5/76
f 114/2/77 113/5/77 121/5/77 122/2/77
f 119/14/75 115/14/75 123/14/75 127/14/75
f 129/5/78 133/5/78 141/5/78 137/5/78
f 132/17/79 136/17/79 144/17/79 140/17/79
f 126/2/80 122/2/80 130/2/80 134/2/80
f 128/19/81 127/20/81 135/20/81 136/19/81
f 123/20/82 124/19/82 132/19/82 131/20/82
f 124/17/80 128/17/80 136/17/80 132/17/80
f 121/5/72 125/5/72 133/5/72 129/5/72
f 125/5/83 126/2/83 134/2/83 133/5/83
f 138/2/84 137/5/84 141/5/84 142/2/84
f 139/20/84 140/19/84 144/19/84 143/20/84
f 133/5/85 134/2/85 142/2/85 141/5/85
f 130/2/86 129/5/86 137/5/86 138/2/86
f 135/14/78 131/14/78 139/14/78 143/14/78
f 134/2/79 130/2/79 138/2/79 142/2/79
f 136/19/87 135/20/87 143/20/87 144/19/87
f 131/20/88 132/19/88 140/19/88 139/20/88
f 145/5/89 146/5/89 150/5/89 149/5/89
f 147/14/89 148/14/89 152/14/89 151/14/89
f 109/5/90 105/5/90 153/5/90 154/5/90
f 111/20/15 103/20/15 147/20/15 151/20/15
f 103/14/64 99/14/64 148/14/64 147/14/64
f 105/5/15 97/5/15 145/5/15 149/5/15
f 151/14/91 152/14/91 160/14/91 159/14/91
f 99/20/17 107/20/17 152/20/17 148/20/17
f 154/5/92 153/5/92 157/5/92 158/5/92
f 156/14/92 155/14/92 159/14/92 160/14/92
f 150/5/93 109/5/93 154/5/93 158/5/93
f 152/20/94 107/20/94 156/20/94 160/20/94
f 107/14/90 111/14/90 155/14/90 156/14/90
f 111/20/95 151/20/95 159/20/95 155/20/95
f 149/5/91 150/5/91 158/5/91 157/5/91
f 105/5/96 149/5/96 157/5/96 153/5/96
f 162/19/97 164/20/97 163/5/97 161/2/97
f 85/2/98 86/17/98 162/17/98 161/2/98
f 88/14/99 87/5/99 163/5/99 164/14/99
f 85/2/100 161/2/100 170/2/100 166/2/100
f 167/14/101 171/14/101 179/14/101 175/14/101
f 166/2/102 170/2/102 178/2/102 174/2/102
f 83/5/103 81/2/103 174/2/103 173/5/103
f 164/20/104 162/19/104 172/19/104 171/20/104
f 163/5/105 87/5/105 165/5/105 169/5/105
f 162/17/106 86/17/106 168/17/106 172/17/106
f 87/5/107 83/5/107 173/5/107 165/5/107
f 161/2/108 163/5/108 169/5/108 170/2/108
f 176/19/109 175/20/109 179/20/109 180/19/109
f 173/5/110 174/2/110 178/2/110 177/5/110
f 170/2/111 169/5/111 177/5/111 178/2/111
f 169/5/112 165/5/112 173/5/112 177/5/112
f 172/17/113 168/17/113 176/17/113 180/17/113
f 171/20/114 172/19/114 180/19/114 179/20/114
f 88/23/115 86/23/115 168/23/115 167/23/115
f 86/17/116 82/17/116 176/17/116 168/17/116
f 84/14/117 88/14/117 167/14/117 175/14/117
f 82/19/118 84/20/118 175/20/118 176/19/118
f 55/6/119 59/15/119 183/6/119
f 63/6/120 55/6/120 183/6/120
f 84/14/121 95/14/121 182/14/121
f 53/5/122 89/5/122 181/5/122
f 83/5/58 53/5/58 181/5/58
f 91/20/122 57/20/122 182/20/122
f 93/5/121 83/5/121 181/5/121
f 89/5/60 93/5/60 181/5/60
f 59/22/123 62/22/123 183/22/123
